<svg width="23" height="23" viewBox="0 0 23 23" fill="none" xmlns="http://www.w3.org/2000/svg">
<g id="Group 16">
<g id="Group 15">
<g id="button">
<rect id="Rectangle 7" width="23" height="23" rx="11.5" fill="#B3DEFC"/>
</g>
</g>
<path id="Vector" d="M7 11.5C7 11.3207 7.07122 11.1488 7.19798 11.022C7.32474 10.8953 7.49667 10.8241 7.67595 10.8241H10.8241V7.67595C10.8241 7.49667 10.8953 7.32474 11.022 7.19798C11.1488 7.07122 11.3207 7 11.5 7C11.6793 7 11.8512 7.07122 11.978 7.19798C12.1047 7.32474 12.1759 7.49667 12.1759 7.67595V10.8241H15.3241C15.5033 10.8241 15.6753 10.8953 15.802 11.022C15.9288 11.1488 16 11.3207 16 11.5C16 11.6793 15.9288 11.8512 15.802 11.978C15.6753 12.1047 15.5033 12.1759 15.3241 12.1759H12.1759V15.3241C12.1759 15.5033 12.1047 15.6753 11.978 15.802C11.8512 15.9288 11.6793 16 11.5 16C11.3207 16 11.1488 15.9288 11.022 15.802C10.8953 15.6753 10.8241 15.5033 10.8241 15.3241V12.1759H7.67595C7.49667 12.1759 7.32474 12.1047 7.19798 11.978C7.07122 11.8512 7 11.6793 7 11.5Z" fill="#103DA2"/>
</g>
</svg>
