<svg width="23" height="23" viewBox="0 0 23 23" fill="none" xmlns="http://www.w3.org/2000/svg">
<g id="Group 3">
<g id="button">
<rect id="Rectangle 7" width="23" height="23" rx="11.5" fill="#B3DEFC"/>
</g>
<path id="Vector" d="M10.2778 17.6667H12.7222C12.7222 18.4 12.1722 19 11.5 19C10.8278 19 10.2778 18.4 10.2778 17.6667ZM17 16.3333V17H6V16.3333L7.22222 15V11C7.22222 8.93333 8.44444 7.13333 10.2778 6.53333V6.33333C10.2778 5.6 10.8278 5 11.5 5C12.1722 5 12.7222 5.6 12.7222 6.33333V6.53333C14.5556 7.13333 15.7778 8.93333 15.7778 11V15L17 16.3333ZM14.5556 11C14.5556 9.13333 13.2111 7.66667 11.5 7.66667C9.78889 7.66667 8.44444 9.13333 8.44444 11V15.6667H14.5556V11Z" fill="#103DA2"/>
</g>
</svg>
