<svg xmlns="http://www.w3.org/2000/svg" width="15" height="18" viewBox="0 0 15 18" fill="none">
  <path d="M3.75 3.68182C3.75 2.70534 4.14509 1.76885 4.84835 1.07838C5.55161 0.387905 6.50544 0 7.5 0C8.49456 0 9.44839 0.387905 10.1516 1.07838C10.8549 1.76885 11.25 2.70534 11.25 3.68182V4.90909H15V18H0V4.90909H3.75V3.68182ZM3.75 6.54545H1.66667V16.3636H13.3333V6.54545H11.25V9H9.58333V6.54545H5.41667V9H3.75V6.54545ZM9.58333 4.90909V3.68182C9.58333 3.13933 9.36384 2.61906 8.97314 2.23546C8.58244 1.85187 8.05253 1.63636 7.5 1.63636C6.94747 1.63636 6.41756 1.85187 6.02686 2.23546C5.63616 2.61906 5.41667 3.13933 5.41667 3.68182V4.90909H9.58333Z" fill="white"/>
</svg>